General
Complete name                    : VTS_01_1-muxed.mkv
Format                           : Matroska
File size                        : 688 MiB
Duration                         : 2h 5mn
Overall bit rate                 : 764 Kbps
Encoded date                     : UTC 2010-12-09 21:51:56
Writing application              : mkvmerge v4.0.0 ('The Stars were mine') built on Jun  6 2010 16:18:42
Writing library                  : libebml v1.0.0 + libmatroska v1.0.0

Video
ID                               : 1
Format                           : AVC
Format/Info                      : Advanced Video Codec
Format profile                   : High@L2.1
Format settings, CABAC           : Yes
Format settings, ReFrames        : 4 frames
Codec ID                         : V_MPEG4/ISO/AVC
Duration                         : 2h 5mn
Bit rate                         : 677 Kbps
Width                            : 640 pixels
Height                           : 272 pixels
Display aspect ratio             : 2.35:1
Frame rate                       : 25.000 fps
Color space                      : YUV
Chroma subsampling               : 4:2:0
Bit depth                        : 8 bits
Scan type                        : Progressive
Bits/(Pixel*Frame)               : 0.156
Stream size                      : 594 MiB (86%)
Writing library                  : x264 core 98 r1649 c54c47d


Audio
ID                               : 2
Format                           : MPEG Audio
Format version                   : Version 1
Format profile                   : Layer 3
Mode                             : Joint stereo
Mode extension                   : MS Stereo
Codec ID                         : A_MPEG/L3
Codec ID/Hint                    : MP3
Duration                         : 2h 5mn
Bit rate mode                    : Variable
Bit rate                         : 89.3 Kbps
Nominal bit rate                 : 96.0 Kbps
Channel(s)                       : 2 channels
Sampling rate                    : 32.0 KHz
Stream size                      : 80.4 MiB (12%)
Writing library                  : LAME3.98r
Encoding settings                : -m j -V 4 -q 2 -lowpass 15.1 --abr 96
Language                         : Hindi


SCREEN SHOTS
 
http://maxupload.net/images/76887016823561205800.png
 
http://maxupload.net/images/43041601954686822910.png
 
http://maxupload.net/images/04107541600790309883.png
 
http://maxupload.net/images/53407969882810362673.png
 
http://maxupload.net/images/89716963416925703519.png
 
http://maxupload.net/images/85539998709168650179.png